<svg xmlns:rdf="http://www.w3.org/1999/02/22-rdf-syntax-ns#" xmlns="http://www.w3.org/2000/svg" height="100%" width="100%" version="1.1" xmlns:cc="http://creativecommons.org/ns#" xmlns:xlink="http://www.w3.org/1999/xlink" viewBox="0 0 128 128" xmlns:dc="http://purl.org/dc/elements/1.1/"><path d="M43.5,125.18c-19.329-6.74-33.232-20.84-40.128-40.69-2.4359-7.012-2.7755-9.458-2.7755-19.99s0.33959-12.978,2.7755-19.99c3.6152-10.408,8.3483-18.07,15.708-25.43,7.36-7.36,15.022-12.093,25.43-15.708,7.012-2.4359,9.458-2.7755,19.99-2.7755s12.978,0.33959,19.99,2.7755c10.408,3.6152,18.07,8.3483,25.43,15.708,7.3658,7.3658,12.153,15.117,15.506,25.106,2.22,6.628,2.57,9.38,2.57,20.314s-0.34858,13.686-2.5736,20.314c-3.3532,9.9891-8.1405,17.74-15.506,25.106-7.3658,7.3658-15.117,12.153-25.106,15.506-6.6636,2.2369-9.3446,2.5719-20.49,2.5602-11.436-0.0119-13.69-0.31538-20.824-2.8033z" fill="#ebeff0"/>
<path d="M55.973,123.12c-23.336-6.3-39.944-25.398-43.961-50.547-0.862-5.394-0.771-8.585,0.444-15.628,3.387-19.624,14.484-35.077,31.433-43.771,8.48-4.3497,13.311-5.7226,23.62-6.7121,6.1136-0.58686,7.3226-0.41885,9.464,1.3152,2.196,1.7782,2.327,2.269,1.2414,4.6518-0.66754,1.4651-2.5568,3.4304-4.1984,4.3675-4.7321,2.7011-4.6551,4.2739,0.41898,8.5577,6.2026,5.2366,6.2168,8.2596,0.06503,13.858-2.475,2.2524-4.5,4.4618-4.5,4.9098,0,0.44793,2.287,3.1748,5.0823,6.0597,4.4315,4.5736,5.0081,5.6341,4.5027,8.2818-0.31878,1.6701-2.0827,4.438-3.9197,6.151-2.6382,2.46-4.5826,3.2638-9.2527,3.8249-8.735,1.049-21.412,7.386-21.412,10.704,0,0.959,9.1,6.864,15.717,10.199,4.992,2.516,19.941,6.657,24.031,6.657,5.0231,0,11.179,2.2389,12.751,4.6374,1.4869,2.2693,1.4204,2.7942-1.0515,8.3024-6.09,13.57-22.036,19.156-40.474,14.177zm30.277-63.34c-4.101-1.978-2.22-4.78,3.209-4.78,2.8177,0,4.7909,2.1842,3.9509,4.3733-0.7063,1.8406-3.8199,2.0172-7.1603,0.40625zm-7-13.442c-2.517-1.016-1.3-3.338,1.75-3.338,2.3333,0,3,0.44444,3,2,0,1.9553-1.8961,2.4893-4.75,1.3377zm15.12-11.239c-3.3712-1.5949-6.4203-3.3702-6.7756-3.9451-0.69483-1.1243,4.1908-2.8043,11.036-3.7948,3.3718-0.48795,4.5198-0.20844,6.25,1.5218,1.1658,1.1657,2.1195,2.7619,2.1195,3.547,0,1.3222-4.4902,5.5736-5.8849,5.5718-0.33833-0.000434-3.3734-1.3057-6.7447-2.9006zm-15.12-13.319c-2.9578-1.4265-2.8467-2.5917,0.32322-3.3872,2.9581-0.74244,4.9691,0.75216,4.091,3.0405-0.69083,1.8003-1.3009,1.8482-4.4142,0.34672zm6.2491-9.1698c-2.574-1.9-1.157-3.4411,3.515-3.8242,3.128-0.2564,3.486-0.029,3.486,2.2142,0,1.9223-0.57791,2.5676-2.5009,2.7924-1.3755,0.16081-3.4005-0.37139-4.5-1.1827z" fill="#3fa3e6"/>
<path d="M36,113.63c-12.875-9.5-21.231-23.798-23.988-41.057-0.862-5.394-0.771-8.585,0.444-15.628,3.387-19.624,14.484-35.077,31.433-43.771,8.48-4.3497,13.311-5.7226,23.62-6.7121,6.1136-0.58686,7.3226-0.41885,9.464,1.3152,2.196,1.7782,2.327,2.269,1.2414,4.6518-0.66754,1.4651-2.5568,3.4304-4.1984,4.3675-4.7321,2.7011-4.6551,4.2739,0.41898,8.5577,6.2026,5.2366,6.2168,8.2596,0.06503,13.858-2.475,2.2524-4.5,4.4618-4.5,4.9098,0,0.44793,2.287,3.1748,5.0823,6.0597,4.4315,4.5736,5.0081,5.6341,4.5027,8.2818-0.31878,1.6701-2.0827,4.438-3.9197,6.151-2.6382,2.46-4.5826,3.2638-9.2527,3.8249-8.3962,1.0088-16.126,4.7592-21.298,10.334-8.7693,9.4512-10.472,18.727-5.7779,31.477,1.3669,3.7125,2.1879,6.7388,1.8244,6.7252-0.363-0.02-2.685-1.52-5.16-3.35zm50.25-53.85c-4.101-1.978-2.22-4.78,3.209-4.78,2.8177,0,4.7909,2.1842,3.9509,4.3733-0.7063,1.8406-3.8199,2.0172-7.1603,0.40625zm-7-13.442c-2.517-1.016-1.3-3.338,1.75-3.338,2.3333,0,3,0.44444,3,2,0,1.9553-1.8961,2.4893-4.75,1.3377zm15.12-11.239c-3.3712-1.5949-6.4203-3.3702-6.7756-3.9451-0.69483-1.1243,4.1908-2.8043,11.036-3.7948,3.3718-0.48795,4.5198-0.20844,6.25,1.5218,1.1658,1.1657,2.1195,2.7619,2.1195,3.547,0,1.3222-4.4902,5.5736-5.8849,5.5718-0.33833-0.000434-3.3734-1.3057-6.7447-2.9006zm-15.12-13.319c-2.9578-1.4265-2.8467-2.5917,0.32322-3.3872,2.9581-0.74244,4.9691,0.75216,4.091,3.0405-0.69083,1.8003-1.3009,1.8482-4.4142,0.34672zm6.2491-9.1698c-2.574-1.9-1.157-3.4411,3.515-3.8242,3.128-0.2564,3.486-0.029,3.486,2.2142,0,1.9223-0.57791,2.5676-2.5009,2.7924-1.3755,0.16081-3.4005-0.37139-4.5-1.1827z" fill="#287fb8"/>
</svg>
