<svg xmlns:rdf="http://www.w3.org/1999/02/22-rdf-syntax-ns#" xmlns="http://www.w3.org/2000/svg" viewBox="0 0 128 128" height="100%" width="100%" version="1.1" xmlns:cc="http://creativecommons.org/ns#" xmlns:dc="http://purl.org/dc/elements/1.1/">
<metadata>
<rdf:RDF>
<cc:Work rdf:about="">
<dc:format>image/svg+xml</dc:format>
<dc:type rdf:resource="http://purl.org/dc/dcmitype/StillImage"/>
<dc:title/>
</cc:Work>
</rdf:RDF>
</metadata>
<path d="M43.5,125.18c-19.329-6.74-33.232-20.84-40.128-40.69-2.4359-7.012-2.7755-9.458-2.7755-19.99s0.33959-12.978,2.7755-19.99c3.6152-10.408,8.3483-18.07,15.708-25.43,7.36-7.36,15.022-12.093,25.43-15.708,7.012-2.4359,9.458-2.7755,19.99-2.7755s12.978,0.33959,19.99,2.7755c10.408,3.6152,18.07,8.3483,25.43,15.708,7.3658,7.3658,12.153,15.117,15.506,25.106,2.22,6.628,2.57,9.38,2.57,20.314s-0.34858,13.686-2.5736,20.314c-3.3532,9.9891-8.1405,17.74-15.506,25.106-7.3658,7.3658-15.117,12.153-25.106,15.506-6.6636,2.2369-9.3446,2.5719-20.49,2.5602-11.436-0.0119-13.69-0.31538-20.824-2.8033z" fill="#ebeff0"/>
<path d="M43.5,125.18c-19.329-6.74-33.232-20.84-40.128-40.69-2.4359-7.012-2.7755-9.458-2.7755-19.99s0.33959-12.978,2.7755-19.99c3.6152-10.408,8.3483-18.07,15.708-25.43,7.36-7.36,15.022-12.093,25.43-15.708,7.012-2.4359,9.458-2.7755,19.99-2.7755s12.978,0.33959,19.99,2.7755c10.408,3.6152,18.07,8.3483,25.43,15.708,7.3658,7.3658,12.153,15.117,15.506,25.106,2.22,6.628,2.57,9.38,2.57,20.314s-0.34858,13.686-2.5736,20.314c-3.3532,9.9891-8.1405,17.74-15.506,25.106-7.3658,7.3658-15.117,12.153-25.106,15.506-6.6636,2.2369-9.3446,2.5719-20.49,2.5602-11.436-0.02-13.69-0.32-20.824-2.81zm-4.164-14.93c-4.694-12.749-2.991-22.025,5.778-31.477,5.173-5.574,12.902-9.325,21.299-10.334,4.67-0.56112,6.6145-1.3649,9.2527-3.8249,1.8371-1.713,3.6009-4.4809,3.9197-6.151,0.50538-2.6477-0.0712-3.7082-4.5027-8.2818-2.796-2.884-5.083-5.611-5.083-6.059,0-0.44793,2.025-2.6573,4.5-4.9098,6.1518-5.5986,6.1376-8.6215-0.06503-13.858-5.074-4.284-5.151-5.857-0.419-8.558,1.642-0.937,3.531-2.902,4.198-4.367,1.086-2.383,0.955-2.8737-1.241-4.6519-2.141-1.7341-3.35-1.9021-9.464-1.3152-10.309,0.9895-15.14,2.3624-23.62,6.7121-16.949,8.694-28.046,24.147-31.433,43.771-1.215,7.043-1.306,10.234-0.444,15.628,2.757,17.259,11.113,31.557,23.988,41.057,2.475,1.8257,4.7974,3.3306,5.1609,3.3442,0.36349,0.0136-0.4575-3.0127-1.8244-6.7252zm54.074-50.877c0.84-2.189-1.133-4.373-3.951-4.373-5.4293,0-7.3105,2.8016-3.2093,4.7795,3.3403,1.611,6.454,1.4343,7.1603-0.40625zm-9.41-14.373c0-1.5556-0.66667-2-3-2-4.9087,0-3.7303,3.6964,1.25,3.9211,1.11,0.05,1.75-0.653,1.75-1.921zm20.365-9.0726c3.1887-2.5082,3.3158-4.2465,0.51532-7.047-1.7302-1.7302-2.8782-2.0098-6.25-1.5218-6.8448,0.99054-11.73,2.6706-11.036,3.7948,0.60667,0.98161,12.185,6.844,13.52,6.8457,0.33833,0.000434,1.8008-0.93187,3.25-2.0718zm-20.696-14.494c0.87812-2.2884-1.1328-3.783-4.091-3.0405-3.1699,0.79559-3.281,1.9607-0.32322,3.3872,3.1133,1.5015,3.7233,1.4536,4.4142-0.34672zm8.836-10.433c0-2.2432-0.35807-2.4706-3.4858-2.2142-1.9172,0.15718-3.9422,0.74997-4.5,1.3173-1.4547,1.4795,2.3717,4.0533,5.4849,3.6893,1.923-0.224,2.501-0.87,2.501-2.792z" fill="#bcc2c6"/>
<path d="M43.5,125.18c-19.329-6.74-33.232-20.84-40.128-40.69-2.4359-7.012-2.7755-9.458-2.7755-19.99s0.33959-12.978,2.7755-19.99c3.6152-10.408,8.3483-18.07,15.708-25.43,7.36-7.36,15.022-12.093,25.43-15.708,7.012-2.4359,9.458-2.7755,19.99-2.7755s12.978,0.33959,19.99,2.7755c10.408,3.6152,18.07,8.3483,25.43,15.708,7.3658,7.3658,12.153,15.117,15.506,25.106,2.22,6.628,2.57,9.38,2.57,20.314s-0.34858,13.686-2.5736,20.314c-3.3532,9.9891-8.1405,17.74-15.506,25.106-7.3658,7.3658-15.117,12.153-25.106,15.506-6.6636,2.2369-9.3446,2.5719-20.49,2.5602-11.436-0.0119-13.69-0.31538-20.824-2.8033zm36.962-2.0854c7.8265-2.7508,12.87-7.2182,15.985-14.158,2.4719-5.5082,2.5384-6.0331,1.0515-8.3024-1.571-2.391-7.727-4.63-12.75-4.63-4.09,0-19.039-4.141-24.031-6.657-6.617-3.335-15.717-9.24-15.717-10.199,0-3.3175,12.677-9.6546,21.413-10.704,4.67-0.56112,6.6145-1.3649,9.2527-3.8249,1.8371-1.713,3.6009-4.4809,3.9197-6.151,0.50538-2.6477-0.0712-3.7082-4.5027-8.2818-2.796-2.885-5.083-5.612-5.083-6.06,0-0.44793,2.025-2.6573,4.5-4.9098,6.1518-5.5986,6.1376-8.6215-0.06503-13.858-5.074-4.284-5.151-5.857-0.419-8.558,1.642-0.937,3.531-2.902,4.198-4.367,1.086-2.383,0.955-2.8737-1.241-4.6519-2.141-1.7341-3.35-1.9021-9.464-1.3152-10.309,0.9895-15.14,2.3624-23.62,6.7121-16.949,8.694-28.046,24.147-31.433,43.771-2.3502,13.618,0.19363,26.068,8.0829,39.558,12.164,20.799,40.559,33.401,59.923,26.596zm12.948-63.717c0.84-2.189-1.133-4.373-3.951-4.373-5.4293,0-7.3105,2.8016-3.2093,4.7795,3.3403,1.611,6.454,1.4343,7.1603-0.40625zm-9.41-14.373c0-1.5556-0.66667-2-3-2-4.9087,0-3.7303,3.6964,1.25,3.9211,1.11,0.05,1.75-0.653,1.75-1.921zm20.365-9.0726c3.1887-2.5082,3.3158-4.2465,0.51532-7.047-1.7302-1.7302-2.8782-2.0098-6.25-1.5218-6.8448,0.99054-11.73,2.6706-11.036,3.7948,0.60667,0.98161,12.185,6.844,13.52,6.8457,0.33833,0.000434,1.8008-0.93187,3.25-2.0718zm-20.696-14.494c0.87812-2.2884-1.1328-3.783-4.091-3.0405-3.1699,0.79559-3.281,1.9607-0.32322,3.3872,3.1133,1.5015,3.7233,1.4536,4.4142-0.34672zm8.836-10.433c0-2.2432-0.35807-2.4706-3.4858-2.2142-1.9172,0.15718-3.9422,0.74997-4.5,1.3173-1.4547,1.4795,2.3717,4.0533,5.4849,3.6893,1.923-0.224,2.501-0.87,2.501-2.792z" fill="#287fb8"/>
</svg>
